<svg width="36" height="35" viewBox="0 0 36 35" fill="none" xmlns="http://www.w3.org/2000/svg">
<path fill-rule="evenodd" clip-rule="evenodd" d="M17.1714 12.3558C17.1714 13.6583 16.6815 14.8474 15.8762 15.7472C17.0065 16.5512 17.852 17.6937 18.2906 19.0096C18.7291 20.3256 18.738 21.7469 18.3159 23.0683C17.8937 24.3896 17.0625 25.5425 15.9423 26.3605C14.822 27.1785 13.4708 27.6193 12.0837 27.619H5.54228C4.96398 27.619 4.40937 27.3893 4.00046 26.9804C3.59154 26.5715 3.36182 26.0169 3.36182 25.4386V7.99491C3.36182 7.41662 3.59154 6.86201 4.00046 6.45309C4.40937 6.04418 4.96398 5.81445 5.54228 5.81445H11.3568C12.899 5.81445 14.3779 6.42706 15.4683 7.5175C16.5588 8.60794 17.1714 10.0869 17.1714 11.629V12.3558ZM6.2691 14.5363V8.72173H11.3568C12.1279 8.72173 12.8674 9.02803 13.4126 9.57325C13.9578 10.1185 14.2641 10.858 14.2641 11.629V12.3558C14.2641 12.9341 14.0344 13.4887 13.6255 13.8976C13.2166 14.3066 12.6619 14.5363 12.0837 14.5363H6.2691ZM6.2691 17.4436H12.0837C13.0475 17.4436 13.9718 17.8264 14.6533 18.508C15.3349 19.1895 15.7178 20.1138 15.7178 21.0777C15.7178 22.0415 15.3349 22.9658 14.6533 23.6474C13.9718 24.3289 13.0475 24.7118 12.0837 24.7118H6.2691V17.4436Z" fill="#C4B6B6"/>
<path d="M22.2593 8.72219C22.2593 8.33667 22.4124 7.96693 22.685 7.69432C22.9576 7.42171 23.3274 7.26855 23.7129 7.26855H28.8007C29.1862 7.26855 29.5559 7.42171 29.8285 7.69432C30.1011 7.96693 30.2543 8.33667 30.2543 8.72219C30.2543 9.10772 30.1011 9.47746 29.8285 9.75007C29.5559 10.0227 29.1862 10.1758 28.8007 10.1758H23.7129C23.3274 10.1758 22.9576 10.0227 22.685 9.75007C22.4124 9.47746 22.2593 9.10772 22.2593 8.72219Z" fill="#C4B6B6"/>
<path fill-rule="evenodd" clip-rule="evenodd" d="M26.2566 11.6289C22.1268 11.6289 18.625 14.8007 18.625 18.8971V20.3507C18.625 24.4471 22.1268 27.6189 26.2566 27.6189C28.4589 27.6189 30.0535 26.9852 31.1219 26.2961C31.7644 25.8833 32.2689 25.3803 32.7544 24.8018C32.9656 24.4845 33.0438 24.097 32.9721 23.7226C32.9004 23.3483 32.6845 23.0171 32.3709 22.8004C32.0574 22.5836 31.6713 22.4987 31.2957 22.5639C30.9202 22.6292 30.5853 22.8393 30.3631 23.149C30.1325 23.4268 29.8574 23.6645 29.5491 23.8526C28.9226 24.2552 27.8687 24.7117 26.2566 24.7117C23.563 24.7117 21.5323 22.6766 21.5323 20.3507H32.4346C32.8201 20.3507 33.1898 20.1976 33.4625 19.925C33.7351 19.6524 33.8882 19.2826 33.8882 18.8971C33.8882 14.8007 30.3864 11.6289 26.2566 11.6289ZM30.7091 17.4435C30.0695 15.7849 28.3658 14.5362 26.2566 14.5362C24.1474 14.5362 22.4437 15.7849 21.8041 17.4435H30.7091Z" fill="#C4B6B6"/>
</svg>
