<svg width="36" height="35" viewBox="0 0 36 35" fill="none" xmlns="http://www.w3.org/2000/svg">
<path fill-rule="evenodd" clip-rule="evenodd" d="M6.13667 15.5803C9.90451 15.8929 13.5124 15.137 16.4997 13.4289C14.9968 11.1966 13.2359 9.14932 11.2535 7.32947C9.88761 8.28794 8.73005 9.51316 7.85064 10.9312C6.97122 12.3493 6.38817 13.9308 6.13667 15.5803ZM10.64 4.27102C8.34106 5.61647 6.43443 7.54043 5.10982 9.85148C3.78521 12.1625 3.08879 14.7801 3.08984 17.4439C3.08984 25.8735 9.9234 32.7071 18.3531 32.7071C26.7827 32.7071 33.6163 25.8735 33.6163 17.4439C33.6163 9.01424 26.7827 2.18068 18.3531 2.18068C15.6417 2.17629 12.9786 2.89753 10.64 4.26956V4.27102ZM13.9631 5.88892C15.796 7.66957 17.4414 9.63354 18.8735 11.75C20.6862 10.1859 22.0928 8.20574 22.9727 5.97904C21.5044 5.38804 19.9359 5.0855 18.3531 5.08796C16.8536 5.08629 15.3664 5.35821 13.9645 5.89037L13.9631 5.88892ZM25.5355 7.38907C24.4231 10.0599 22.6691 12.4151 20.4289 14.2459C20.9347 15.1312 21.4042 16.0368 21.836 16.9598C24.5732 15.8943 27.5342 15.403 30.5796 15.6545C30.3389 14.0084 29.7682 12.4279 28.9017 11.0079C28.0351 9.5878 26.8907 8.35742 25.5369 7.39053L25.5355 7.38907ZM30.6567 18.5792C28.0081 18.3088 25.3945 18.71 22.964 19.6418C23.9687 22.2983 24.6344 25.071 24.9453 27.8941C26.5476 26.8833 27.896 25.5174 28.8861 23.9022C29.8762 22.287 30.4815 20.4657 30.6552 18.5792H30.6567ZM22.1441 29.2053C21.9302 26.3649 21.3191 23.5684 20.3286 20.8977C17.2497 22.6668 14.607 25.311 12.7711 28.4697C14.5009 29.3469 16.4136 29.8026 18.3531 29.7998C19.6759 29.7998 20.9507 29.592 22.1456 29.2067L22.1441 29.2053ZM10.3479 26.8562C12.476 23.2599 15.5664 20.2102 19.2034 18.194C18.8393 17.4156 18.4466 16.6509 18.026 15.9016C14.5169 17.925 10.3217 18.8147 6.03928 18.4876C6.31245 21.7371 7.86164 24.7461 10.3479 26.8562Z" fill="#C4B6B6"/>
</svg>
