<svg width="36" height="35" viewBox="0 0 36 35" fill="none" xmlns="http://www.w3.org/2000/svg">
<path fill-rule="evenodd" clip-rule="evenodd" d="M3.729 8.72178C3.729 7.17967 4.34161 5.70071 5.43205 4.61027C6.52249 3.51983 8.00144 2.90723 9.54356 2.90723H26.9872C28.5293 2.90723 30.0083 3.51983 31.0987 4.61027C32.1892 5.70071 32.8018 7.17967 32.8018 8.72178V26.1655C32.8018 27.7076 32.1892 29.1865 31.0987 30.277C30.0083 31.3674 28.5293 31.98 26.9872 31.98H9.54356C8.00144 31.98 6.52249 31.3674 5.43205 30.277C4.34161 29.1865 3.729 27.7076 3.729 26.1655V8.72178ZM9.54356 5.81451C8.7725 5.81451 8.03302 6.12081 7.4878 6.66603C6.94258 7.21125 6.63628 7.95073 6.63628 8.72178V26.1655C6.63628 26.9365 6.94258 27.676 7.4878 28.2212C8.03302 28.7664 8.7725 29.0727 9.54356 29.0727H18.2654V18.8973H16.8118C16.4262 18.8973 16.0565 18.7441 15.7839 18.4715C15.5113 18.1989 15.3581 17.8291 15.3581 17.4436C15.3581 17.0581 15.5113 16.6884 15.7839 16.4157C16.0565 16.1431 16.4262 15.99 16.8118 15.99H18.2654V13.8095C18.2654 12.4602 18.8014 11.1661 19.7556 10.2119C20.7097 9.25781 22.0038 8.72178 23.3531 8.72178H24.2253C24.6108 8.72178 24.9806 8.87493 25.2532 9.14754C25.5258 9.42016 25.679 9.78989 25.679 10.1754C25.679 10.561 25.5258 10.9307 25.2532 11.2033C24.9806 11.4759 24.6108 11.6291 24.2253 11.6291H23.3531C23.0668 11.6291 22.7833 11.6855 22.5187 11.795C22.2542 11.9046 22.0138 12.0652 21.8113 12.2677C21.6088 12.4702 21.4482 12.7106 21.3387 12.9751C21.2291 13.2396 21.1727 13.5232 21.1727 13.8095V15.99H24.2253C24.6108 15.99 24.9806 16.1431 25.2532 16.4157C25.5258 16.6884 25.679 17.0581 25.679 17.4436C25.679 17.8291 25.5258 18.1989 25.2532 18.4715C24.9806 18.7441 24.6108 18.8973 24.2253 18.8973H21.1727V29.0727H26.9872C27.7583 29.0727 28.4978 28.7664 29.043 28.2212C29.5882 27.676 29.8945 26.9365 29.8945 26.1655V8.72178C29.8945 7.95073 29.5882 7.21125 29.043 6.66603C28.4978 6.12081 27.7583 5.81451 26.9872 5.81451H9.54356Z" fill="#C4B6B6"/>
</svg>
