<svg width="70" height="81" viewBox="0 0 70 81" fill="none" xmlns="http://www.w3.org/2000/svg">
<path d="M20 75.9375H5V81H20V75.9375Z" fill="#F7FEFF"/>
<path d="M20 45.5625H15V70.875H10V15.1875H20V10.125H5V75.9375H20V45.5625Z" fill="#231E2B"/>
<path d="M5 10.125H0V75.9375H5V10.125Z" fill="#F7FEFF"/>
<path d="M45 55.6875H35V60.75H45V55.6875Z" fill="#F7FEFF"/>
<path d="M50 50.625H45V55.6875H50V50.625Z" fill="#F7FEFF"/>
<path d="M45 50.625H35V55.6875H45V50.625Z" fill="#231E2B"/>
<path d="M35 50.625H30V55.6875H35V50.625Z" fill="#F7FEFF"/>
<path d="M15 50.625H10V70.875H15V50.625Z" fill="#E2B436"/>
<path d="M65 45.5625H50V50.625H65V45.5625Z" fill="#F7FEFF"/>
<path d="M50 45.5625H45V50.625H50V45.5625Z" fill="#231E2B"/>
<path d="M45 45.5625H35V50.625H45V45.5625Z" fill="#892727"/>
<path d="M35 45.5625H30V50.625H35V45.5625Z" fill="#231E2B"/>
<path d="M20 45.5625V75.9375H25V50.625H30V45.5625H20Z" fill="#F7FEFF"/>
<path d="M15 45.5625H10V50.625H15V45.5625Z" fill="#CF8934"/>
<path d="M50 40.5H45V45.5625H50V40.5Z" fill="#892727"/>
<path d="M35 40.5H30V45.5625H35V40.5Z" fill="#892727"/>
<path d="M30 40.5H20V45.5625H30V40.5Z" fill="#231E2B"/>
<path d="M20 40.5H15V45.5625H20V40.5Z" fill="#892727"/>
<path d="M70 30.375H65V45.5625H70V30.375Z" fill="#F7FEFF"/>
<path d="M50 35.4375V20.25H45V25.3125H35V20.25H30V35.4375H20V20.25H15V40.5H35V45.5625H45V40.5H60V35.4375H50Z" fill="#9A2D2D"/>
<path d="M15 15.1875H10V45.5625H15V15.1875Z" fill="#CF6B55"/>
<path d="M60 40.5H50V45.5625H65V30.375H60V40.5Z" fill="#231E2B"/>
<path d="M65 20.25H60V30.375H65V20.25Z" fill="#F7FEFF"/>
<path d="M60 20.25H55V30.375H60V20.25Z" fill="#231E2B"/>
<path d="M45 20.25H35V25.3125H45V20.25Z" fill="#B0392E"/>
<path d="M50 20.25V35.4375H60V30.375H55V20.25H60V15.1875H45V20.25H50Z" fill="#B0392E"/>
<path d="M45 15.1875H35V20.25H45V15.1875Z" fill="#231E2B"/>
<path d="M15 15.1875V20.25H20V35.4375H30V20.25H35V15.1875H15Z" fill="#B0392E"/>
<path d="M70 5.0625H65V20.25H70V5.0625Z" fill="#F7FEFF"/>
<path d="M60 10.125H50V15.1875H60V10.125Z" fill="#CF6B55"/>
<path d="M50 10.125H45V15.1875H50V10.125Z" fill="#231E2B"/>
<path d="M45 10.125H35V15.1875H45V10.125Z" fill="#F7FEFF"/>
<path d="M35 10.125H30V15.1875H35V10.125Z" fill="#231E2B"/>
<path d="M30 10.125H20V15.1875H30V10.125Z" fill="#CF6B55"/>
<path d="M60 10.125V20.25H65V5.0625H50V10.125H60Z" fill="#231E2B"/>
<path d="M50 5.0625H45V10.125H50V5.0625Z" fill="#F7FEFF"/>
<path d="M35 5.0625H30V10.125H35V5.0625Z" fill="#F7FEFF"/>
<path d="M30 5.0625H20V10.125H30V5.0625Z" fill="#231E2B"/>
<path d="M20 5.0625H5V10.125H20V5.0625Z" fill="#F7FEFF"/>
<path d="M65 0H50V5.0625H65V0Z" fill="#F7FEFF"/>
<path d="M30 0H20V5.0625H30V0Z" fill="#F7FEFF"/>
</svg>
