<svg width="36" height="35" viewBox="0 0 36 35" fill="none" xmlns="http://www.w3.org/2000/svg">
<path fill-rule="evenodd" clip-rule="evenodd" d="M9.5421 2.90723C7.99998 2.90723 6.52102 3.51983 5.43058 4.61027C4.34014 5.70071 3.72754 7.17967 3.72754 8.72178V26.1655C3.72754 27.7076 4.34014 29.1865 5.43058 30.277C6.52102 31.3674 7.99998 31.98 9.5421 31.98H26.9858C28.5279 31.98 30.0068 31.3674 31.0973 30.277C32.1877 29.1865 32.8003 27.7076 32.8003 26.1655V8.72178C32.8003 7.17967 32.1877 5.70071 31.0973 4.61027C30.0068 3.51983 28.5279 2.90723 26.9858 2.90723H9.5421ZM6.63482 8.72178C6.63482 7.95073 6.94112 7.21125 7.48634 6.66603C8.03156 6.12081 8.77104 5.81451 9.5421 5.81451H26.9858C27.7568 5.81451 28.4963 6.12081 29.0415 6.66603C29.5867 7.21125 29.893 7.95073 29.893 8.72178V26.1655C29.893 26.9365 29.5867 27.676 29.0415 28.2212C28.4963 28.7664 27.7568 29.0727 26.9858 29.0727H9.5421C8.77104 29.0727 8.03156 28.7664 7.48634 28.2212C6.94112 27.676 6.63482 26.9365 6.63482 26.1655V8.72178ZM13.903 15.99C13.903 15.6045 13.7499 15.2347 13.4773 14.9621C13.2046 14.6895 12.8349 14.5363 12.4494 14.5363C12.0638 14.5363 11.6941 14.6895 11.4215 14.9621C11.1489 15.2347 10.9957 15.6045 10.9957 15.99V24.7118C10.9957 25.0973 11.1489 25.4671 11.4215 25.7397C11.6941 26.0123 12.0638 26.1655 12.4494 26.1655C12.8349 26.1655 13.2046 26.0123 13.4773 25.7397C13.7499 25.4671 13.903 25.0973 13.903 24.7118V15.99ZM14.6298 10.9022C14.6298 11.4805 14.4001 12.0351 13.9912 12.4441C13.5823 12.853 13.0277 13.0827 12.4494 13.0827C11.8711 13.0827 11.3165 12.853 10.9076 12.4441C10.4986 12.0351 10.2689 11.4805 10.2689 10.9022C10.2689 10.3239 10.4986 9.76934 10.9076 9.36042C11.3165 8.95151 11.8711 8.72178 12.4494 8.72178C13.0277 8.72178 13.5823 8.95151 13.9912 9.36042C14.4001 9.76934 14.6298 10.3239 14.6298 10.9022ZM18.2639 14.5363C18.7582 14.5363 19.1943 14.7835 19.4559 15.1585C20.2051 14.7502 21.0448 14.5363 21.898 14.5363C25.0379 14.5363 26.9858 17.3361 26.9858 19.7273V24.7118C26.9858 25.0973 26.8326 25.4671 26.56 25.7397C26.2874 26.0123 25.9177 26.1655 25.5321 26.1655C25.1466 26.1655 24.7769 26.0123 24.5042 25.7397C24.2316 25.4671 24.0785 25.0973 24.0785 24.7118V19.7258C24.0785 18.6094 23.1191 17.4422 21.898 17.4422C21.1363 17.4422 20.2947 17.8565 19.7176 18.842V24.7118C19.7176 25.0973 19.5644 25.4671 19.2918 25.7397C19.0192 26.0123 18.6495 26.1655 18.2639 26.1655C17.8784 26.1655 17.5087 26.0123 17.2361 25.7397C16.9634 25.4671 16.8103 25.0973 16.8103 24.7118V15.99C16.8103 15.6045 16.9634 15.2347 17.2361 14.9621C17.5087 14.6895 17.8784 14.5363 18.2639 14.5363Z" fill="#C4B6B6"/>
</svg>
