<svg width="35" height="35" viewBox="0 0 35 35" fill="none" xmlns="http://www.w3.org/2000/svg">
<path fill-rule="evenodd" clip-rule="evenodd" d="M5.08745 17.4439C5.08834 14.815 5.92767 12.2549 7.48343 10.1358C9.03919 8.01672 11.2303 6.44906 13.7382 5.66073C16.2461 4.8724 18.94 4.9045 21.4284 5.75237C23.9168 6.60023 26.0699 8.21966 27.5748 10.3752C29.0796 12.5308 29.8577 15.1102 29.7959 17.7383C29.7342 20.3665 28.8358 22.9064 27.2313 24.9889C25.6269 27.0714 23.4001 28.5879 20.8747 29.318C18.3492 30.048 15.6567 29.9535 13.1886 29.0483C14.0272 26.8004 14.8408 24.5432 15.6292 22.2772C16.4636 22.8732 17.5408 23.2584 18.897 23.2584C21.7098 23.2584 24.6752 21.405 25.4093 17.7288C26.3353 13.1135 22.6387 8.72204 17.4434 8.72204C15.2586 8.72204 13.1101 9.60004 11.5024 10.9926C9.89173 12.3896 8.72155 14.4014 8.72155 16.7171C8.72155 17.8436 9.0617 19.0981 9.87138 19.9238C10.1458 20.1939 10.5153 20.3454 10.9003 20.3456C11.2853 20.3459 11.655 20.1949 11.9297 19.9252C12.1969 19.6582 12.3497 19.2977 12.3557 18.92C12.3616 18.5423 12.2203 18.1771 11.9617 17.9018C10.8192 16.4772 12.3251 14.1281 13.4066 13.1905C14.5303 12.2166 16.0145 11.6293 17.4434 11.6293C20.9714 11.6293 23.0893 14.5061 22.5602 17.159C22.1183 19.3598 20.4437 20.3512 18.897 20.3512C17.708 20.3512 17.0683 19.8497 16.6584 19.1999C16.8823 18.4963 17.0727 17.8567 17.2094 17.3363C17.4885 16.265 17.6571 14.9727 16.6933 14.1688C15.9767 13.5728 15.1306 13.7037 14.6132 13.9639C13.6494 14.4436 13.0825 15.5687 13.0825 16.7171C13.0825 17.3581 13.1828 18.3524 13.5433 19.3801C12.6052 22.1778 11.6176 24.9585 10.5808 27.7211C8.88965 26.5928 7.50337 25.0644 6.54505 23.2715C5.58674 21.4786 5.08605 19.4768 5.08745 17.4439ZM17.4434 2.18066C9.01373 2.18066 2.18018 9.01422 2.18018 17.4439C2.18018 25.8735 9.01373 32.7071 17.4434 32.7071C25.873 32.7071 32.7066 25.8735 32.7066 17.4439C32.7066 9.01422 25.873 2.18066 17.4434 2.18066Z" fill="#C4B6B6"/>
</svg>
