<svg width="36" height="35" viewBox="0 0 36 35" fill="none" xmlns="http://www.w3.org/2000/svg">
<path fill-rule="evenodd" clip-rule="evenodd" d="M10.9003 5.91626C12.6185 3.87535 15.0519 2.90723 17.808 2.90723C20.628 2.90723 23.0469 4.04688 24.7331 6.12413C26.2304 7.97025 27.0778 10.4618 27.2319 13.3589L27.3657 13.3792L27.3947 13.3836C27.6419 13.4185 27.9369 13.4621 28.2437 13.5217C29.379 13.7412 31.3167 14.2965 31.9839 16.3766C32.3182 17.4218 32.151 18.3899 31.5652 19.1575C31.0608 19.8189 30.3398 20.2012 29.8238 20.4323C29.5679 20.5486 29.3121 20.6474 29.0969 20.7303C29.5999 22.0909 30.475 23.4908 31.4431 24.7583C32.3545 25.9532 32.1132 27.4665 31.6423 28.4535C31.1698 29.442 30.1494 30.5714 28.6638 30.6354C27.8236 30.6717 26.9412 30.759 26.0632 30.9189C25.6664 30.9915 25.1983 31.15 24.6168 31.3898C24.2694 31.5323 23.9511 31.6747 23.608 31.8274C23.3347 31.9495 23.0469 32.0774 22.714 32.2199C21.3476 32.8071 19.6686 33.4337 17.808 33.4337C15.9473 33.4337 14.2684 32.8071 12.9019 32.2199C12.5691 32.0774 12.2798 31.9495 12.008 31.8274C11.6738 31.6768 11.3374 31.531 10.9991 31.3898C10.4177 31.15 9.94961 30.9901 9.55277 30.9174C8.67477 30.7575 7.79241 30.6717 6.95075 30.6354C5.46659 30.5714 4.44468 29.442 3.9737 28.4535C3.50272 27.4665 3.26142 25.9532 4.17285 24.7583C5.14679 23.482 6.02624 22.072 6.52774 20.7027C6.30768 20.6161 6.09004 20.5235 5.87506 20.425C5.3721 20.1895 4.68889 19.8131 4.18448 19.1822C3.62192 18.4757 3.37335 17.5643 3.5943 16.5206C4.06528 14.2863 6.16724 13.7296 7.27782 13.5202C7.59326 13.4621 7.89998 13.4185 8.15727 13.3822L8.20815 13.3749L8.38259 13.3502C8.5265 10.2612 9.36815 7.73476 10.9003 5.91626ZM13.1244 7.78855C12.0152 9.10409 11.2666 11.2191 11.2666 14.3299V14.4811L11.2346 14.6308C11.0733 15.3925 10.4875 15.7487 10.1967 15.8853C9.89146 16.0292 9.56149 16.1005 9.3289 16.1441C9.10214 16.1862 8.8492 16.2211 8.62389 16.2516L8.55702 16.2618C8.30853 16.2947 8.06086 16.3335 7.81421 16.3781C6.70218 16.586 6.4914 16.8622 6.43762 17.1195C6.39982 17.3041 6.43326 17.3419 6.45215 17.3622L6.45797 17.368C6.53501 17.4654 6.72108 17.6108 7.10774 17.791C7.288 17.8754 7.47842 17.9524 7.6892 18.0382L7.74153 18.0585C7.92614 18.1312 8.14564 18.2199 8.33898 18.3114C8.5294 18.3987 8.84775 18.5586 9.11813 18.8173C9.43211 19.1182 9.81151 19.7055 9.6269 20.4803C9.09778 22.7058 7.76188 24.8485 6.48559 26.5201C6.46617 26.5691 6.45821 26.6218 6.46233 26.6742C6.46233 26.8123 6.50158 27.0013 6.59606 27.2004C6.692 27.3996 6.81411 27.5522 6.92749 27.6438C7.02053 27.7194 7.07286 27.731 7.07867 27.731C8.02499 27.7717 9.04108 27.8706 10.0732 28.0581C10.7753 28.186 11.4687 28.4389 12.1083 28.7035C12.4615 28.8489 12.8671 29.0291 13.261 29.2036C13.5357 29.3257 13.8047 29.4449 14.046 29.5481C15.3528 30.1077 16.5724 30.5264 17.808 30.5264C19.0436 30.5264 20.2646 30.1077 21.57 29.5481C21.8113 29.4449 22.0802 29.3242 22.355 29.2036C22.7474 29.0291 23.1545 28.8489 23.5062 28.7035C24.1458 28.4389 24.8392 28.186 25.5413 28.0581C26.5734 27.8691 27.591 27.7717 28.5358 27.731C28.5446 27.731 28.5954 27.7194 28.6885 27.6438C28.829 27.5211 28.942 27.37 29.0199 27.2004C29.1014 27.0366 29.147 26.8572 29.1536 26.6742C29.1536 26.539 29.1202 26.5071 29.1318 26.5231C27.8555 24.8514 26.5182 22.7072 25.9876 20.4803C25.7914 19.6517 26.2405 19.0557 26.5502 18.7795C26.8264 18.5353 27.1491 18.3827 27.3453 18.2969C27.5416 18.2097 27.7625 18.1268 27.9515 18.0556L28.0212 18.028C28.2437 17.9451 28.4428 17.8681 28.6303 17.7823C29.0228 17.6064 29.19 17.4712 29.2467 17.4029C29.2415 17.3559 29.2313 17.3096 29.2161 17.2648C29.0839 16.852 28.7103 16.5729 27.6898 16.3752C27.4587 16.3316 27.2247 16.2967 26.9775 16.2589L26.9223 16.2516C26.6922 16.2204 26.463 16.1836 26.2347 16.1412C25.9386 16.0893 25.6507 15.9984 25.3785 15.8708C25.0733 15.7196 24.5354 15.3576 24.3813 14.6308L24.3494 14.4811V14.3285C24.3494 11.4939 23.6124 9.35702 22.4756 7.95717C21.3636 6.58493 19.7864 5.81451 17.808 5.81451C15.7656 5.81451 14.203 6.50644 13.1229 7.78855H13.1244Z" fill="#C4B6B6"/>
</svg>
